<?xml version="1.0" standalone="no"?>
<!DOCTYPE svg PUBLIC "-//W3C//DTD SVG 20010904//EN"
 "http://www.w3.org/TR/2001/REC-SVG-20010904/DTD/svg10.dtd">
<svg version="1.0" xmlns="http://www.w3.org/2000/svg"
 width="1280.000000pt" height="706.000000pt" viewBox="0 0 1280.000000 706.000000"
 preserveAspectRatio="xMidYMid meet">

<g transform="translate(0.000000,706.000000) scale(0.100000,-0.100000)"
fill="#ffffff" stroke="none">
<path d="M9550 4040 l0 -1770 -350 0 -350 0 0 1770 0 1770 350 0 350 0 0 -1770z
m-6550 1394 l0 -266 -272 -368 c-150 -202 -320 -432 -378 -511 -58 -79 -157
-213 -221 -299 -63 -85 -165 -222 -225 -305 -61 -82 -141 -193 -180 -245 -38
-52 -142 -193 -232 -315 l-163 -220 853 -5 853 -5 3 -312 2 -313 -1340 0
-1340 0 0 246 0 247 865 1153 c476 635 865 1156 865 1159 0 3 -369 5 -820 5
l-820 0 0 310 0 310 1275 0 1275 0 0 -266z m4665 -522 c221 -60 374 -149 536
-311 205 -206 328 -462 375 -785 24 -163 15 -442 -19 -586 -54 -228 -122 -379
-244 -541 -86 -115 -186 -210 -301 -286 -384 -256 -914 -257 -1288 -2 -47 32
-88 59 -90 59 -2 0 -4 -272 -4 -605 l0 -605 -350 0 -350 0 0 412 0 412 223
219 c122 121 437 434 700 695 l477 477 149 -149 c136 -136 150 -147 155 -125
5 22 100 713 111 804 3 22 14 105 25 184 11 79 18 146 16 148 -5 5 -1107 -115
-1151 -126 l-30 -7 135 -137 c74 -76 137 -143 139 -149 4 -11 -937 -958 -952
-958 -5 0 -6 26 -3 58 3 31 5 463 5 960 l1 902 320 0 c176 0 320 -3 320 -7 0
-10 29 -182 35 -211 5 -22 8 -21 63 26 149 128 293 199 492 243 115 26 399 21
505 -9z m-3732 -849 c4 -882 2 -861 63 -988 100 -212 378 -302 637 -205 81 30
158 104 202 193 66 134 67 142 68 1020 l2 787 347 0 348 0 0 -829 c0 -776 -1
-836 -19 -943 -11 -62 -30 -144 -41 -183 -31 -101 -115 -255 -181 -334 -144
-171 -393 -302 -659 -348 -134 -23 -442 -23 -569 1 -527 97 -834 423 -890 948
-7 60 -11 404 -11 893 l0 795 350 0 349 0 4 -807z m6624 715 c17 -51 56 -163
86 -248 127 -357 232 -653 272 -770 87 -251 196 -545 205 -554 7 -7 10 -4 10
7 0 9 45 141 99 294 55 153 158 445 231 648 72 204 155 438 184 520 30 83 57
160 61 173 l6 22 370 0 c203 0 369 -2 369 -4 0 -5 -134 -354 -270 -706 -39
-102 -99 -255 -132 -340 -33 -85 -77 -200 -98 -255 -21 -55 -70 -183 -110
-285 -39 -102 -123 -318 -185 -480 -62 -162 -143 -371 -180 -465 -36 -93 -91
-235 -122 -315 -116 -301 -178 -405 -323 -543 -103 -98 -182 -146 -305 -186
-219 -72 -411 -74 -690 -4 -55 13 -103 28 -108 32 -4 4 11 125 33 268 22 144
40 271 40 282 0 26 9 26 87 1 185 -58 374 -40 476 46 55 46 95 113 148 248 28
72 51 137 52 146 0 8 -68 191 -152 405 -84 215 -173 442 -198 505 -25 63 -69
176 -98 250 -65 165 -131 335 -195 500 -26 69 -80 208 -120 310 -39 102 -105
273 -147 380 -41 107 -77 198 -79 202 -3 5 165 8 373 8 l379 0 31 -92z"/>
</g>
</svg>
